<svg xmlns="http://www.w3.org/2000/svg"><symbol id="facebook" viewBox="0 0 9.3 20"><title id="title">Facebook logo</title><desc id="desc">Logo by Facebook</desc><path d="M9.3 6.5L8.9 10H6.1v10H2V10H0V6.5h2V4.2C2 2.6 2.8 0 6.2 0h3.1v3.4H7.1c-.4 0-.9.2-.9 1v2.1h3.1z"/></symbol><symbol id="google" viewBox="0 0 30 31.2"><title id="title">Google logo</title><desc id="desc">Logo by Google</desc><path d="M16 17.9c-.9-.6-2.5-2.1-2.5-3 0-1 .3-1.5 1.9-2.8 1.6-1.2 2.7-3 2.7-5 0-2.4-1.1-4.8-3.1-5.6h3L20.1 0h-9.6C6.2 0 2.1 3.3 2.1 7.1c0 3.9 2.9 7 7.3 7h.9c-.3.5-.5 1.2-.5 1.8 0 1.1.6 2 1.3 2.7H9.4c-5.4 0-9.5 3.4-9.5 7 0 3.5 4.5 5.7 9.9 5.7 6.1 0 9.5-3.5 9.5-7 .1-2.9-.8-4.6-3.3-6.4zm-5.2-4.8c-2.5-.1-4.8-2.8-5.2-6-.5-3.3 1.2-5.8 3.7-5.7 2.5.1 4.8 2.7 5.3 6 .4 3.2-1.3 5.8-3.8 5.7zm-.9 16.5c-3.7 0-6.4-2.3-6.4-5.2 0-2.8 3.3-5.1 7-5 .9 0 1.7.1 2.4.4 2 1.4 3.5 2.2 3.9 3.8.1.3.1.7.1 1 0 2.8-1.8 5-7 5z"/><path d="M26.3 13.4V9.6h-3.1v3.8h-3.7v3h3.7v3.8h3.1v-3.8H30v-3z"/></symbol><symbol id="linkedin" viewBox="0 0 30.3 27.8"><title id="title">Linkedin logo</title><desc id="desc">Logo by Linkedin</desc><path d="M.8 8.9h5.9v18.9H.8zm22-.2c-3.4 0-5.5 1.8-5.9 3.1v-3h-6.6c.1 1.6 0 18.9 0 18.9h6.6V17.6c0-.6 0-1.1.1-1.5.5-1.1 1.4-2.3 3.2-2.3 2.3 0 3.3 1.7 3.3 4.3v9.8h6.7V17.3c.1-5.9-3.2-8.6-7.4-8.6zM3.6 0C1.4 0 0 1.4 0 3.3c0 1.8 1.4 3.3 3.5 3.3 2.2 0 3.6-1.4 3.6-3.3S5.8 0 3.6 0z"/></symbol></svg>