<svg xmlns="http://www.w3.org/2000/svg">
    <!-- facebook icon -->
    <symbol id="facebook" role="img" aria-labelledby="title desc" viewBox="0 0 9.3 20">
        <title id="title">Facebook logo</title>
        <desc id="desc">Logo by Facebook</desc>
        <path d="M9.3,6.5L8.9,10H6.1c0,4.5,0,10,0,10H2c0,0,0-5.5,0-10H0V6.5h2V4.2C2,2.6,2.8,0,6.2,0l3.1,0v3.4
        c0,0-1.9,0-2.2,0c-0.4,0-0.9,0.2-0.9,1v2.1H9.3z"/>
    </symbol>

    <!-- google icon -->
    <symbol id="google" role="img" aria-labelledby="title desc" viewBox="0 0 30 31.2">
        <title id="title">Google logo</title>
        <desc id="desc">Logo by Google</desc>
        <path d="M16,17.9c-0.9-0.6-2.5-2.1-2.5-3c0-1,0.3-1.5,1.9-2.8c1.6-1.2,2.7-3,2.7-5c0-2.4-1.1-4.8-3.1-5.6H18L20.1,0
            h-9.6C6.2,0,2.1,3.3,2.1,7.1c0,3.9,2.9,7,7.3,7c0.3,0,0.6,0,0.9,0c-0.3,0.5-0.5,1.2-0.5,1.8c0,1.1,0.6,2,1.3,2.7c-0.6,0-1.1,0-1.7,0
            c-5.4,0-9.5,3.4-9.5,7c0,3.5,4.5,5.7,9.9,5.7c6.1,0,9.5-3.5,9.5-7C19.4,21.4,18.5,19.7,16,17.9z M10.8,13.1C8.3,13,6,10.3,5.6,7.1
            C5.1,3.8,6.8,1.3,9.3,1.4c2.5,0.1,4.8,2.7,5.3,6C15,10.6,13.3,13.2,10.8,13.1z M9.9,29.6c-3.7,0-6.4-2.3-6.4-5.2c0-2.8,3.3-5.1,7-5
            c0.9,0,1.7,0.1,2.4,0.4c2,1.4,3.5,2.2,3.9,3.8c0.1,0.3,0.1,0.7,0.1,1C16.9,27.4,15.1,29.6,9.9,29.6z"/>
        <polygon points="26.3,13.4 26.3,9.6 23.2,9.6 23.2,13.4 19.5,13.4 19.5,16.4 23.2,16.4 23.2,20.2 26.3,20.2
            26.3,16.4 30,16.4 30,13.4 "/>
    </symbol>

    <!-- linkedin icon -->
    <symbol id="linkedin" role="img" aria-labelledby="title desc" viewBox="0 0 30.3 27.8">
        <title id="title">Linkedin logo</title>
        <desc id="desc">Logo by Linkedin</desc>
        <rect x="0.8" y="8.9" width="5.9" height="18.9"/>
        <path d="M22.8,8.7c-3.4,0-5.5,1.8-5.9,3.1v-3h-6.6c0.1,1.6,0,18.9,0,18.9h6.6V17.6c0-0.6,0-1.1,0.1-1.5
            c0.5-1.1,1.4-2.3,3.2-2.3c2.3,0,3.3,1.7,3.3,4.3v9.8h6.7V17.3C30.3,11.4,27,8.7,22.8,8.7z"/>
        <path d="M3.6,0C1.4,0,0,1.4,0,3.3c0,1.8,1.4,3.3,3.5,3.3h0c2.2,0,3.6-1.4,3.6-3.3C7.1,1.4,5.8,0,3.6,0z"/>
    </symbol>
</svg>
